<?xml version="1.0" encoding="UTF-8" standalone="no"?>
<!DOCTYPE svg PUBLIC "-//W3C//DTD SVG 1.1//EN"
 "http://www.w3.org/Graphics/SVG/1.1/DTD/svg11.dtd">
<!-- Generated by graphviz version 14.1.3 (20260303.0454)
 -->
<!-- Title: TinyURLDataModel Pages: 1 -->
<svg width="814pt" height="828pt"
 viewBox="0.00 0.00 814.00 828.00" xmlns="http://www.w3.org/2000/svg" xmlns:xlink="http://www.w3.org/1999/xlink">
<g id="graph0" class="graph" transform="scale(1 1) rotate(0) translate(25.2 802.4)">
<title>TinyURLDataModel</title>
<polygon fill="#ffffff" stroke="none" points="-25.2,25.2 -25.2,-802.4 788.46,-802.4 788.46,25.2 -25.2,25.2"/>
<text xml:space="preserve" text-anchor="middle" x="381.63" y="-755.2" font-family="Segoe UI" font-size="20.00">TinyURL Postgres data model</text>
<!-- links -->
<g id="node1" class="node">
<title>links</title>
<polygon fill="#dbeafe" stroke="none" points="265.69,-712.4 265.69,-745.2 459.75,-745.2 459.75,-712.4 265.69,-712.4"/>
<polygon fill="none" stroke="#2563eb" points="265.69,-712.4 265.69,-745.2 459.75,-745.2 459.75,-712.4 265.69,-712.4"/>
<text xml:space="preserve" text-anchor="start" x="348.32" y="-725.6" font-family="Segoe UI" font-weight="bold" font-size="14.00" fill="#0f172a">links</text>
<polygon fill="none" stroke="#2563eb" points="265.69,-679.6 265.69,-712.4 459.75,-712.4 459.75,-679.6 265.69,-679.6"/>
<text xml:space="preserve" text-anchor="start" x="273.69" y="-692.8" font-family="Segoe UI" font-weight="bold" font-size="14.00" fill="#0f172a">PK</text>
<text xml:space="preserve" text-anchor="start" x="293.13" y="-692.8" font-family="Segoe UI" font-size="14.00" fill="#0f172a"> code text</text>
<polygon fill="none" stroke="#2563eb" points="265.69,-646.8 265.69,-679.6 459.75,-679.6 459.75,-646.8 265.69,-646.8"/>
<text xml:space="preserve" text-anchor="start" x="273.69" y="-657.6" font-family="Segoe UI" font-size="14.00" fill="#0f172a">destination_url text</text>
<polygon fill="none" stroke="#2563eb" points="265.69,-614 265.69,-646.8 459.75,-646.8 459.75,-614 265.69,-614"/>
<text xml:space="preserve" text-anchor="start" x="273.69" y="-624.8" font-family="Segoe UI" font-size="14.00" fill="#0f172a">owner_id text</text>
<polygon fill="none" stroke="#2563eb" points="265.69,-581.2 265.69,-614 459.75,-614 459.75,-581.2 265.69,-581.2"/>
<text xml:space="preserve" text-anchor="start" x="273.69" y="-592" font-family="Segoe UI" font-size="14.00" fill="#0f172a">status text</text>
<polygon fill="none" stroke="#2563eb" points="265.69,-531.6 265.69,-581.2 459.75,-581.2 459.75,-531.6 265.69,-531.6"/>
<text xml:space="preserve" text-anchor="start" x="279.15" y="-559.2" font-family="Segoe UI" font-size="14.00" fill="#0f172a">created_at</text>
<text xml:space="preserve" text-anchor="start" x="273.69" y="-542.4" font-family="Segoe UI" font-size="14.00" fill="#0f172a">timestamptz</text>
<polygon fill="none" stroke="#2563eb" points="265.69,-498.8 265.69,-531.6 459.75,-531.6 459.75,-498.8 265.69,-498.8"/>
<text xml:space="preserve" text-anchor="start" x="273.69" y="-509.6" font-family="Segoe UI" font-size="14.00" fill="#0f172a">updated_at timestamptz</text>
<polygon fill="none" stroke="#2563eb" points="265.69,-466 265.69,-498.8 459.75,-498.8 459.75,-466 265.69,-466"/>
<text xml:space="preserve" text-anchor="start" x="273.69" y="-476.8" font-family="Segoe UI" font-size="14.00" fill="#0f172a">expires_at timestamptz nullable</text>
<polygon fill="none" stroke="#2563eb" points="265.69,-433.2 265.69,-466 459.75,-466 459.75,-433.2 265.69,-433.2"/>
<text xml:space="preserve" text-anchor="start" x="273.69" y="-444" font-family="Segoe UI" font-size="14.00" fill="#0f172a">version bigint</text>
<polygon fill="#eff6ff" stroke="none" points="265.69,-383.6 265.69,-433.2 459.75,-433.2 459.75,-383.6 265.69,-383.6"/>
<polygon fill="none" stroke="#2563eb" points="265.69,-383.6 265.69,-433.2 459.75,-433.2 459.75,-383.6 265.69,-383.6"/>
<text xml:space="preserve" text-anchor="start" x="275.57" y="-411.2" font-family="Segoe UI" font-size="14.00" fill="#0f172a">one row = one</text>
<text xml:space="preserve" text-anchor="start" x="273.69" y="-394.4" font-family="Segoe UI" font-size="14.00" fill="#0f172a">Link aggregate</text>
</g>
<!-- idempotency -->
<g id="node2" class="node">
<title>idempotency</title>
<polygon fill="#ede9fe" stroke="none" points="0,-205.6 0,-238.4 145.44,-238.4 145.44,-205.6 0,-205.6"/>
<polygon fill="none" stroke="#7c3aed" points="0,-205.6 0,-238.4 145.44,-238.4 145.44,-205.6 0,-205.6"/>
<text xml:space="preserve" text-anchor="start" x="17.89" y="-218.8" font-family="Segoe UI" font-weight="bold" font-size="14.00" fill="#0f172a">idempotency_keys</text>
<polygon fill="none" stroke="#7c3aed" points="0,-172.8 0,-205.6 145.44,-205.6 145.44,-172.8 0,-172.8"/>
<text xml:space="preserve" text-anchor="start" x="8" y="-186" font-family="Segoe UI" font-weight="bold" font-size="14.00" fill="#0f172a">PK</text>
<text xml:space="preserve" text-anchor="start" x="27.44" y="-186" font-family="Segoe UI" font-size="14.00" fill="#0f172a"> owner_id + key</text>
<polygon fill="none" stroke="#7c3aed" points="0,-140 0,-172.8 145.44,-172.8 145.44,-140 0,-140"/>
<text xml:space="preserve" text-anchor="start" x="8" y="-153.2" font-family="Segoe UI" font-weight="bold" font-size="14.00" fill="#0f172a">FK</text>
<text xml:space="preserve" text-anchor="start" x="27.44" y="-153.2" font-family="Segoe UI" font-size="14.00" fill="#0f172a"> code &#45;&gt; links.code</text>
<polygon fill="none" stroke="#7c3aed" points="0,-107.2 0,-140 145.44,-140 145.44,-107.2 0,-107.2"/>
<text xml:space="preserve" text-anchor="start" x="8" y="-118" font-family="Segoe UI" font-size="14.00" fill="#0f172a">created_at timestamptz</text>
<polygon fill="#faf5ff" stroke="none" points="0,-57.6 0,-107.2 145.44,-107.2 145.44,-57.6 0,-57.6"/>
<polygon fill="none" stroke="#7c3aed" points="0,-57.6 0,-107.2 145.44,-107.2 145.44,-57.6 0,-57.6"/>
<text xml:space="preserve" text-anchor="start" x="8" y="-85.2" font-family="Segoe UI" font-size="14.00" fill="#0f172a">retry key resolves</text>
<text xml:space="preserve" text-anchor="start" x="16.15" y="-68.4" font-family="Segoe UI" font-size="14.00" fill="#0f172a">to original link</text>
</g>
<!-- links&#45;&gt;idempotency -->
<g id="edge1" class="edge">
<title>links&#45;&gt;idempotency</title>
<path fill="none" stroke="#475569" stroke-width="1.35" d="M263.73,-428.57C232.74,-386.36 206.49,-350.6 206.49,-350.6 206.49,-350.6 168.72,-296 168.72,-296 168.72,-296 153.54,-272.75 135.25,-244.75"/>
<polygon fill="#475569" stroke="#475569" stroke-width="1.35" points="268.35,-428.53 262.31,-432.97 261.42,-431.76 267.47,-427.32 268.35,-428.53"/>
<polyline fill="none" stroke="#475569" stroke-width="1.35" points="265.77,-431.35 263.55,-428.33"/>
<polygon fill="#475569" stroke="#475569" stroke-width="1.35" points="135.4,-244.98 134.13,-236.86 133.1,-241.46 131.55,-239.08 131.55,-239.08 131.55,-239.08 133.1,-241.46 128.47,-240.55 135.4,-244.98"/>
<text xml:space="preserve" text-anchor="middle" x="251.6" y="-342.5" font-family="Segoe UI" font-size="9.00" fill="#475569">1 link to many retry keys</text>
<text xml:space="preserve" text-anchor="middle" x="251.6" y="-331.7" font-family="Segoe UI" font-size="9.00" fill="#475569">FK code</text>
</g>
<!-- events -->
<g id="node3" class="node">
<title>events</title>
<polygon fill="#d1fae5" stroke="none" points="192.68,-263.2 192.68,-296 334.76,-296 334.76,-263.2 192.68,-263.2"/>
<polygon fill="none" stroke="#059669" points="192.68,-263.2 192.68,-296 334.76,-296 334.76,-263.2 192.68,-263.2"/>
<text xml:space="preserve" text-anchor="start" x="217.85" y="-276.4" font-family="Segoe UI" font-weight="bold" font-size="14.00" fill="#0f172a">redirect_events</text>
<polygon fill="none" stroke="#059669" points="192.68,-230.4 192.68,-263.2 334.76,-263.2 334.76,-230.4 192.68,-230.4"/>
<text xml:space="preserve" text-anchor="start" x="200.68" y="-243.6" font-family="Segoe UI" font-weight="bold" font-size="14.00" fill="#0f172a">PK</text>
<text xml:space="preserve" text-anchor="start" x="220.12" y="-243.6" font-family="Segoe UI" font-size="14.00" fill="#0f172a"> id bigserial</text>
<polygon fill="none" stroke="#059669" points="192.68,-197.6 192.68,-230.4 334.76,-230.4 334.76,-197.6 192.68,-197.6"/>
<text xml:space="preserve" text-anchor="start" x="200.68" y="-210.8" font-family="Segoe UI" font-weight="bold" font-size="14.00" fill="#0f172a">FK</text>
<text xml:space="preserve" text-anchor="start" x="220.12" y="-210.8" font-family="Segoe UI" font-size="14.00" fill="#0f172a"> code &#45;&gt; links.code</text>
<polygon fill="none" stroke="#059669" points="192.68,-148 192.68,-197.6 334.76,-197.6 334.76,-148 192.68,-148"/>
<text xml:space="preserve" text-anchor="start" x="201.86" y="-175.6" font-family="Segoe UI" font-size="14.00" fill="#0f172a">occurred_at</text>
<text xml:space="preserve" text-anchor="start" x="200.68" y="-158.8" font-family="Segoe UI" font-size="14.00" fill="#0f172a">timestamptz</text>
<polygon fill="none" stroke="#059669" points="192.68,-115.2 192.68,-148 334.76,-148 334.76,-115.2 192.68,-115.2"/>
<text xml:space="preserve" text-anchor="start" x="200.68" y="-126" font-family="Segoe UI" font-size="14.00" fill="#0f172a">user_agent nullable</text>
<polygon fill="none" stroke="#059669" points="192.68,-82.4 192.68,-115.2 334.76,-115.2 334.76,-82.4 192.68,-82.4"/>
<text xml:space="preserve" text-anchor="start" x="200.68" y="-93.2" font-family="Segoe UI" font-size="14.00" fill="#0f172a">referer nullable</text>
<polygon fill="none" stroke="#059669" points="192.68,-49.6 192.68,-82.4 334.76,-82.4 334.76,-49.6 192.68,-49.6"/>
<text xml:space="preserve" text-anchor="start" x="200.68" y="-60.4" font-family="Segoe UI" font-size="14.00" fill="#0f172a">ip nullable</text>
<polygon fill="#ecfdf5" stroke="none" points="192.68,0 192.68,-49.6 334.76,-49.6 334.76,0 192.68,0"/>
<polygon fill="none" stroke="#059669" points="192.68,0 192.68,-49.6 334.76,-49.6 334.76,0 192.68,0"/>
<text xml:space="preserve" text-anchor="start" x="202.02" y="-27.6" font-family="Segoe UI" font-size="14.00" fill="#0f172a">append&#45;only</text>
<text xml:space="preserve" text-anchor="start" x="200.68" y="-10.8" font-family="Segoe UI" font-size="14.00" fill="#0f172a">redirect facts</text>
</g>
<!-- links&#45;&gt;events -->
<g id="edge2" class="edge">
<title>links&#45;&gt;events</title>
<path fill="none" stroke="#475569" stroke-width="1.35" d="M318.98,-380.3C312.85,-354.65 306.6,-328.5 300.62,-303.45"/>
<polygon fill="#475569" stroke="#475569" stroke-width="1.35" points="323.27,-382.15 315.98,-383.89 315.63,-382.43 322.92,-380.69 323.27,-382.15"/>
<polyline fill="none" stroke="#475569" stroke-width="1.35" points="319.8,-383.75 318.93,-380.1"/>
<polygon fill="#475569" stroke="#475569" stroke-width="1.35" points="300.62,-303.45 302.16,-295.37 299.64,-299.36 298.98,-296.59 298.98,-296.59 298.98,-296.59 299.64,-299.36 295.59,-296.94 300.62,-303.45"/>
<text xml:space="preserve" text-anchor="middle" x="349" y="-342.5" font-family="Segoe UI" font-size="9.00" fill="#475569">1 link to many events</text>
<text xml:space="preserve" text-anchor="middle" x="349" y="-331.7" font-family="Segoe UI" font-size="9.00" fill="#475569">FK code</text>
</g>
<!-- constraints -->
<g id="node4" class="node">
<title>constraints</title>
<polygon fill="#fffbeb" stroke="#d97706" points="535.49,-194 381.95,-194 381.95,-102 541.49,-102 541.49,-188 535.49,-194"/>
<polyline fill="none" stroke="#d97706" points="535.49,-194 535.49,-188"/>
<polyline fill="none" stroke="#d97706" points="541.49,-188 535.49,-188"/>
<text xml:space="preserve" text-anchor="middle" x="461.72" y="-181" font-family="Segoe UI" font-size="10.00" fill="#0f172a">DATABASE RULES</text>
<text xml:space="preserve" text-anchor="middle" x="461.72" y="-157" font-family="Segoe UI" font-size="10.00" fill="#0f172a">status in active | disabled | deleted</text>
<text xml:space="preserve" text-anchor="middle" x="461.72" y="-145" font-family="Segoe UI" font-size="10.00" fill="#0f172a">expires_at is null or after created_at</text>
<text xml:space="preserve" text-anchor="middle" x="461.72" y="-133" font-family="Segoe UI" font-size="10.00" fill="#0f172a">version &gt;= 1</text>
<text xml:space="preserve" text-anchor="middle" x="461.72" y="-121" font-family="Segoe UI" font-size="10.00" fill="#0f172a">optimistic update matches</text>
<text xml:space="preserve" text-anchor="middle" x="461.72" y="-109" font-family="Segoe UI" font-size="10.00" fill="#0f172a">code + version</text>
</g>
<!-- links&#45;&gt;constraints -->
<g id="edge3" class="edge">
<title>links&#45;&gt;constraints</title>
<path fill="none" stroke="#475569" stroke-width="1.35" d="M405.64,-383.75C421.22,-318.51 437.69,-249.57 448.72,-203.41"/>
<polygon fill="#475569" stroke="#475569" stroke-width="1.35" points="451.26,-204.09 450.45,-196.18 446.15,-202.87 451.26,-204.09"/>
<text xml:space="preserve" text-anchor="middle" x="439.51" y="-337.1" font-family="Segoe UI" font-size="9.00" fill="#475569">enforced by</text>
</g>
<!-- indexes -->
<g id="node5" class="node">
<title>indexes</title>
<polygon fill="#f8fafc" stroke="#64748b" points="757.26,-200 588.18,-200 588.18,-96 763.26,-96 763.26,-194 757.26,-200"/>
<polyline fill="none" stroke="#64748b" points="757.26,-200 757.26,-194"/>
<polyline fill="none" stroke="#64748b" points="763.26,-194 757.26,-194"/>
<text xml:space="preserve" text-anchor="middle" x="675.72" y="-187" font-family="Segoe UI" font-size="10.00" fill="#0f172a">INDEXES</text>
<text xml:space="preserve" text-anchor="middle" x="675.72" y="-163" font-family="Segoe UI" font-size="10.00" fill="#0f172a">links(owner_id, created_at desc)</text>
<text xml:space="preserve" text-anchor="middle" x="675.72" y="-151" font-family="Segoe UI" font-size="10.00" fill="#0f172a">links(expires_at) partial</text>
<text xml:space="preserve" text-anchor="middle" x="675.72" y="-139" font-family="Segoe UI" font-size="10.00" fill="#0f172a">links(status, expires_at)</text>
<text xml:space="preserve" text-anchor="middle" x="675.72" y="-127" font-family="Segoe UI" font-size="10.00" fill="#0f172a">idempotency_keys(code)</text>
<text xml:space="preserve" text-anchor="middle" x="675.72" y="-115" font-family="Segoe UI" font-size="10.00" fill="#0f172a">redirect_events(code, occurred_at desc)</text>
<text xml:space="preserve" text-anchor="middle" x="675.72" y="-103" font-family="Segoe UI" font-size="10.00" fill="#0f172a">redirect_events(occurred_at)</text>
</g>
<!-- links&#45;&gt;indexes -->
<g id="edge4" class="edge">
<title>links&#45;&gt;indexes</title>
<path fill="none" stroke="#475569" stroke-width="1.35" d="M459.58,-435.18C511.42,-366.56 564.72,-296 564.72,-296 564.72,-296 600.32,-248.86 631.2,-207.96"/>
<polygon fill="#475569" stroke="#475569" stroke-width="1.35" points="633.24,-209.61 635.67,-202.04 629.05,-206.45 633.24,-209.61"/>
<text xml:space="preserve" text-anchor="middle" x="564.56" y="-337.1" font-family="Segoe UI" font-size="9.00" fill="#475569">query support</text>
</g>
</g>
</svg>
