<?xml version="1.0" encoding="UTF-8" standalone="no"?>
<!DOCTYPE svg PUBLIC "-//W3C//DTD SVG 1.1//EN"
 "http://www.w3.org/Graphics/SVG/1.1/DTD/svg11.dtd">
<!-- Generated by graphviz version 14.1.3 (20260303.0454)
 -->
<!-- Title: TinyURLDomainModel Pages: 1 -->
<svg width="1232pt" height="423pt"
 viewBox="0.00 0.00 1232.00 423.00" xmlns="http://www.w3.org/2000/svg" xmlns:xlink="http://www.w3.org/1999/xlink">
<g id="graph0" class="graph" transform="scale(1 1) rotate(0) translate(25.2 397.6)">
<title>TinyURLDomainModel</title>
<polygon fill="#ffffff" stroke="none" points="-25.2,25.2 -25.2,-397.6 1206.52,-397.6 1206.52,25.2 -25.2,25.2"/>
<text xml:space="preserve" text-anchor="middle" x="590.66" y="-350.4" font-family="Segoe UI" font-size="20.00">Link domain model and lifecycle</text>
<!-- constructors -->
<g id="node1" class="node">
<title>constructors</title>
<path fill="#ecfdf5" stroke="#059669" d="M142.11,-225.4C142.11,-225.4 12,-225.4 12,-225.4 6,-225.4 0,-219.4 0,-213.4 0,-213.4 0,-139 0,-139 0,-133 6,-127 12,-127 12,-127 142.11,-127 142.11,-127 148.11,-127 154.11,-133 154.11,-139 154.11,-139 154.11,-213.4 154.11,-213.4 154.11,-219.4 148.11,-225.4 142.11,-225.4"/>
<text xml:space="preserve" text-anchor="middle" x="77.05" y="-209.2" font-family="Segoe UI" font-size="10.00" fill="#0f172a">CREATION PATHS</text>
<text xml:space="preserve" text-anchor="middle" x="77.05" y="-185.2" font-family="Segoe UI" font-size="10.00" fill="#0f172a">NewLink</text>
<text xml:space="preserve" text-anchor="middle" x="77.05" y="-173.2" font-family="Segoe UI" font-size="10.00" fill="#0f172a">new valid aggregate, version 1</text>
<text xml:space="preserve" text-anchor="middle" x="77.05" y="-149.2" font-family="Segoe UI" font-size="10.00" fill="#0f172a">RehydrateLink</text>
<text xml:space="preserve" text-anchor="middle" x="77.05" y="-137.2" font-family="Segoe UI" font-size="10.00" fill="#0f172a">validate stored fields and rebuild</text>
</g>
<!-- link -->
<g id="node2" class="node">
<title>link</title>
<path fill="#dcfce7" stroke="#16a34a" stroke-width="2.4" d="M413.2,-261.4C413.2,-261.4 244.32,-261.4 244.32,-261.4 238.32,-261.4 232.32,-255.4 232.32,-249.4 232.32,-249.4 232.32,-103 232.32,-103 232.32,-97 238.32,-91 244.32,-91 244.32,-91 413.2,-91 413.2,-91 419.2,-91 425.2,-97 425.2,-103 425.2,-103 425.2,-249.4 425.2,-249.4 425.2,-255.4 419.2,-261.4 413.2,-261.4"/>
<text xml:space="preserve" text-anchor="middle" x="328.76" y="-245.2" font-family="Segoe UI" font-size="10.00" fill="#0f172a">LINK AGGREGATE ROOT</text>
<text xml:space="preserve" text-anchor="middle" x="328.76" y="-221.2" font-family="Segoe UI" font-size="10.00" fill="#0f172a">private state</text>
<text xml:space="preserve" text-anchor="middle" x="328.76" y="-209.2" font-family="Segoe UI" font-size="10.00" fill="#0f172a">code | destination | ownerID | status</text>
<text xml:space="preserve" text-anchor="middle" x="328.76" y="-197.2" font-family="Segoe UI" font-size="10.00" fill="#0f172a">createdAt | updatedAt | expiresAt | version</text>
<text xml:space="preserve" text-anchor="middle" x="328.76" y="-173.2" font-family="Segoe UI" font-size="10.00" fill="#0f172a">queries</text>
<text xml:space="preserve" text-anchor="middle" x="328.76" y="-161.2" font-family="Segoe UI" font-size="10.00" fill="#0f172a">CanRedirect | IsExpired | getters</text>
<text xml:space="preserve" text-anchor="middle" x="328.76" y="-137.2" font-family="Segoe UI" font-size="10.00" fill="#0f172a">commands</text>
<text xml:space="preserve" text-anchor="middle" x="328.76" y="-125.2" font-family="Segoe UI" font-size="10.00" fill="#0f172a">Disable | Reactivate | Delete</text>
<text xml:space="preserve" text-anchor="middle" x="328.76" y="-113.2" font-family="Segoe UI" font-size="10.00" fill="#0f172a">UpdateDestination</text>
<text xml:space="preserve" text-anchor="middle" x="328.76" y="-101.2" font-family="Segoe UI" font-size="10.00" fill="#0f172a">SetExpiration | ClearExpiration</text>
</g>
<!-- constructors&#45;&gt;link -->
<g id="edge1" class="edge">
<title>constructors&#45;&gt;link</title>
<path fill="none" stroke="#15803d" stroke-width="1.3" d="M154.33,-176.2C175.83,-176.2 199.59,-176.2 222.47,-176.2"/>
<polygon fill="#15803d" stroke="#15803d" stroke-width="1.3" points="222.21,-178.65 229.21,-176.2 222.21,-173.75 222.21,-178.65"/>
<text xml:space="preserve" text-anchor="middle" x="193.22" y="-178.6" font-family="Segoe UI" font-size="8.00" fill="#166534">returns</text>
</g>
<!-- destination -->
<g id="node3" class="node">
<title>destination</title>
<path fill="#eff6ff" stroke="#2563eb" d="M660.27,-340.4C660.27,-340.4 544.57,-340.4 544.57,-340.4 538.57,-340.4 532.57,-334.4 532.57,-328.4 532.57,-328.4 532.57,-266 532.57,-266 532.57,-260 538.57,-254 544.57,-254 544.57,-254 660.27,-254 660.27,-254 666.27,-254 672.27,-260 672.27,-266 672.27,-266 672.27,-328.4 672.27,-328.4 672.27,-334.4 666.27,-340.4 660.27,-340.4"/>
<text xml:space="preserve" text-anchor="middle" x="602.42" y="-324.2" font-family="Segoe UI" font-size="10.00" fill="#0f172a">DestinationURL</text>
<text xml:space="preserve" text-anchor="middle" x="602.42" y="-312.2" font-family="Segoe UI" font-size="10.00" fill="#0f172a">VALUE OBJECT</text>
<text xml:space="preserve" text-anchor="middle" x="602.42" y="-288.2" font-family="Segoe UI" font-size="10.00" fill="#0f172a">absolute HTTP/HTTPS URL</text>
<text xml:space="preserve" text-anchor="middle" x="602.42" y="-276.2" font-family="Segoe UI" font-size="10.00" fill="#0f172a">validated at construction</text>
<text xml:space="preserve" text-anchor="middle" x="602.42" y="-264.2" font-family="Segoe UI" font-size="10.00" fill="#0f172a">compared by value</text>
</g>
<!-- link&#45;&gt;destination -->
<g id="edge2" class="edge">
<title>link&#45;&gt;destination</title>
<path fill="none" stroke="#15803d" stroke-width="1.3" d="M426.3,-219.2C458.09,-233.36 493.02,-248.92 523.26,-262.39"/>
<polygon fill="#15803d" stroke="#15803d" stroke-width="1.3" points="523.33,-262.42 528.3,-261.57 531,-265.83 526.02,-266.68 523.33,-262.42"/>
<text xml:space="preserve" text-anchor="middle" x="466.75" y="-242.73" font-family="Segoe UI" font-size="8.00" fill="#166534">contains</text>
</g>
<!-- status_policy -->
<g id="node4" class="node">
<title>status_policy</title>
<path fill="#faf5ff" stroke="#7c3aed" d="M655.59,-219.4C655.59,-219.4 549.25,-219.4 549.25,-219.4 543.25,-219.4 537.25,-213.4 537.25,-207.4 537.25,-207.4 537.25,-145 537.25,-145 537.25,-139 543.25,-133 549.25,-133 549.25,-133 655.59,-133 655.59,-133 661.59,-133 667.59,-139 667.59,-145 667.59,-145 667.59,-207.4 667.59,-207.4 667.59,-213.4 661.59,-219.4 655.59,-219.4"/>
<text xml:space="preserve" text-anchor="middle" x="602.42" y="-203.2" font-family="Segoe UI" font-size="10.00" fill="#0f172a">LinkStatus</text>
<text xml:space="preserve" text-anchor="middle" x="602.42" y="-191.2" font-family="Segoe UI" font-size="10.00" fill="#0f172a">STATE POLICY</text>
<text xml:space="preserve" text-anchor="middle" x="602.42" y="-167.2" font-family="Segoe UI" font-size="10.00" fill="#0f172a">Active | Disabled | Deleted</text>
<text xml:space="preserve" text-anchor="middle" x="602.42" y="-155.2" font-family="Segoe UI" font-size="10.00" fill="#0f172a">CanRedirect</text>
<text xml:space="preserve" text-anchor="middle" x="602.42" y="-143.2" font-family="Segoe UI" font-size="10.00" fill="#0f172a">CanTransitionTo</text>
</g>
<!-- link&#45;&gt;status_policy -->
<g id="edge3" class="edge">
<title>link&#45;&gt;status_policy</title>
<path fill="none" stroke="#15803d" stroke-width="1.3" d="M426.3,-176.2C459.61,-176.2 496.37,-176.2 527.57,-176.2"/>
<polygon fill="#15803d" stroke="#15803d" stroke-width="1.3" points="527.49,-176.2 531.69,-173.4 535.89,-176.2 531.69,-179 527.49,-176.2"/>
<text xml:space="preserve" text-anchor="middle" x="466.75" y="-178.6" font-family="Segoe UI" font-size="8.00" fill="#166534">contains</text>
</g>
<!-- invariants -->
<g id="node5" class="node">
<title>invariants</title>
<polygon fill="#fffbeb" stroke="#d97706" points="690.54,-98.4 508.3,-98.4 508.3,0 696.54,0 696.54,-92.4 690.54,-98.4"/>
<polyline fill="none" stroke="#d97706" points="690.54,-98.4 690.54,-92.4"/>
<polyline fill="none" stroke="#d97706" points="696.54,-92.4 690.54,-92.4"/>
<text xml:space="preserve" text-anchor="middle" x="602.42" y="-82.2" font-family="Segoe UI" font-size="10.00" fill="#0f172a">INVARIANTS</text>
<text xml:space="preserve" text-anchor="middle" x="602.42" y="-58.2" font-family="Segoe UI" font-size="10.00" fill="#0f172a">expiration after creation/current mutation</text>
<text xml:space="preserve" text-anchor="middle" x="602.42" y="-46.2" font-family="Segoe UI" font-size="10.00" fill="#0f172a">mutation time strictly increases</text>
<text xml:space="preserve" text-anchor="middle" x="602.42" y="-34.2" font-family="Segoe UI" font-size="10.00" fill="#0f172a">deleted is terminal</text>
<text xml:space="preserve" text-anchor="middle" x="602.42" y="-22.2" font-family="Segoe UI" font-size="10.00" fill="#0f172a">successful mutation increments version</text>
<text xml:space="preserve" text-anchor="middle" x="602.42" y="-10.2" font-family="Segoe UI" font-size="10.00" fill="#0f172a">fields cannot be assigned externally</text>
</g>
<!-- link&#45;&gt;invariants -->
<g id="edge4" class="edge">
<title>link&#45;&gt;invariants</title>
<path fill="none" stroke="#d97706" stroke-width="1.3" d="M426.3,-131.07C450.14,-119.92 475.75,-107.95 499.82,-96.7"/>
<polygon fill="#d97706" stroke="#d97706" stroke-width="1.3" points="500.84,-98.93 506.14,-93.74 498.76,-94.49 500.84,-98.93"/>
<text xml:space="preserve" text-anchor="middle" x="466.75" y="-118.91" font-family="Segoe UI" font-size="8.00" fill="#b45309">enforces</text>
</g>
<!-- active -->
<g id="node6" class="node">
<title>active</title>
<path fill="#dcfce7" stroke="#16a34a" d="M846.93,-201.4C846.93,-201.4 783.21,-201.4 783.21,-201.4 777.21,-201.4 771.21,-195.4 771.21,-189.4 771.21,-189.4 771.21,-163 771.21,-163 771.21,-157 777.21,-151 783.21,-151 783.21,-151 846.93,-151 846.93,-151 852.93,-151 858.93,-157 858.93,-163 858.93,-163 858.93,-189.4 858.93,-189.4 858.93,-195.4 852.93,-201.4 846.93,-201.4"/>
<text xml:space="preserve" text-anchor="middle" x="815.07" y="-185.2" font-family="Segoe UI" font-size="10.00" fill="#0f172a">ACTIVE</text>
<text xml:space="preserve" text-anchor="middle" x="815.07" y="-173.2" font-family="Segoe UI" font-size="10.00" fill="#0f172a">redirect allowed</text>
<text xml:space="preserve" text-anchor="middle" x="815.07" y="-161.2" font-family="Segoe UI" font-size="10.00" fill="#0f172a">when unexpired</text>
</g>
<!-- status_policy&#45;&gt;active -->
<g id="edge5" class="edge">
<title>status_policy&#45;&gt;active</title>
<path fill="none" stroke="#15803d" stroke-width="1.3" d="M668.05,-176.2C698.17,-176.2 733.54,-176.2 761.92,-176.2"/>
<polygon fill="#15803d" stroke="#15803d" stroke-width="1.3" points="761.91,-178.65 768.91,-176.2 761.91,-173.75 761.91,-178.65"/>
<text xml:space="preserve" text-anchor="middle" x="733.87" y="-178.6" font-family="Segoe UI" font-size="8.00" fill="#166534">initial</text>
</g>
<!-- disabled -->
<g id="node7" class="node">
<title>disabled</title>
<path fill="#fef3c7" stroke="#d97706" d="M1024.42,-201.4C1024.42,-201.4 960.69,-201.4 960.69,-201.4 954.69,-201.4 948.69,-195.4 948.69,-189.4 948.69,-189.4 948.69,-175 948.69,-175 948.69,-169 954.69,-163 960.69,-163 960.69,-163 1024.42,-163 1024.42,-163 1030.42,-163 1036.42,-169 1036.42,-175 1036.42,-175 1036.42,-189.4 1036.42,-189.4 1036.42,-195.4 1030.42,-201.4 1024.42,-201.4"/>
<text xml:space="preserve" text-anchor="middle" x="992.55" y="-185.2" font-family="Segoe UI" font-size="10.00" fill="#0f172a">DISABLED</text>
<text xml:space="preserve" text-anchor="middle" x="992.55" y="-173.2" font-family="Segoe UI" font-size="10.00" fill="#0f172a">redirect blocked</text>
</g>
<!-- active&#45;&gt;disabled -->
<g id="edge6" class="edge">
<title>active&#45;&gt;disabled</title>
<path fill="none" stroke="#15803d" stroke-width="1.3" d="M859.33,-182.92C874.09,-185.21 886.93,-187.2 886.93,-187.2 886.93,-187.2 920.69,-187.2 920.69,-187.2 920.69,-187.2 928.85,-186.62 939.63,-185.86"/>
<polygon fill="#15803d" stroke="#15803d" stroke-width="1.3" points="939.52,-188.33 946.33,-185.39 939.17,-183.44 939.52,-188.33"/>
<text xml:space="preserve" text-anchor="middle" x="903.81" y="-189.6" font-family="Segoe UI" font-size="8.00" fill="#166534">Disable</text>
</g>
<!-- deleted -->
<g id="node8" class="node">
<title>deleted</title>
<path fill="#fee2e2" stroke="#dc2626" d="M1169.32,-166.4C1169.32,-166.4 1125.29,-166.4 1125.29,-166.4 1119.29,-166.4 1113.29,-160.4 1113.29,-154.4 1113.29,-154.4 1113.29,-140 1113.29,-140 1113.29,-134 1119.29,-128 1125.29,-128 1125.29,-128 1169.32,-128 1169.32,-128 1175.32,-128 1181.32,-134 1181.32,-140 1181.32,-140 1181.32,-154.4 1181.32,-154.4 1181.32,-160.4 1175.32,-166.4 1169.32,-166.4"/>
<text xml:space="preserve" text-anchor="middle" x="1147.31" y="-150.2" font-family="Segoe UI" font-size="10.00" fill="#0f172a">DELETED</text>
<text xml:space="preserve" text-anchor="middle" x="1147.31" y="-138.2" font-family="Segoe UI" font-size="10.00" fill="#0f172a">terminal</text>
</g>
<!-- active&#45;&gt;deleted -->
<g id="edge8" class="edge">
<title>active&#45;&gt;deleted</title>
<path fill="none" stroke="#dc2626" stroke-width="1.3" d="M859.13,-163.02C897.85,-151.16 948.69,-135.6 948.69,-135.6 948.69,-135.6 1036.42,-135.6 1036.42,-135.6 1036.42,-135.6 1073.41,-139.51 1104.47,-142.78"/>
<polygon fill="#dc2626" stroke="#dc2626" stroke-width="1.3" points="1103.86,-145.18 1111.08,-143.48 1104.38,-140.31 1103.86,-145.18"/>
<text xml:space="preserve" text-anchor="middle" x="992.55" y="-138" font-family="Segoe UI" font-size="8.00" fill="#b91c1c">Delete</text>
</g>
<!-- disabled&#45;&gt;active -->
<g id="edge7" class="edge">
<title>disabled&#45;&gt;active</title>
<path fill="none" stroke="#15803d" stroke-width="1.3" d="M948.29,-178.78C933.54,-177.62 920.69,-176.6 920.69,-176.6 920.69,-176.6 894.34,-176.5 868.09,-176.4"/>
<polygon fill="#15803d" stroke="#15803d" stroke-width="1.3" points="868.2,-173.95 861.19,-176.37 868.19,-178.85 868.2,-173.95"/>
<text xml:space="preserve" text-anchor="middle" x="903.81" y="-179" font-family="Segoe UI" font-size="8.00" fill="#166534">Reactivate</text>
</g>
<!-- disabled&#45;&gt;deleted -->
<g id="edge9" class="edge">
<title>disabled&#45;&gt;deleted</title>
<path fill="none" stroke="#dc2626" stroke-width="1.3" d="M1036.51,-172.36C1057.67,-167.51 1083.08,-161.69 1104.13,-156.86"/>
<polygon fill="#dc2626" stroke="#dc2626" stroke-width="1.3" points="1104.67,-159.25 1110.94,-155.3 1103.57,-154.48 1104.67,-159.25"/>
<text xml:space="preserve" text-anchor="middle" x="1074.86" y="-168.15" font-family="Segoe UI" font-size="8.00" fill="#b91c1c">Delete</text>
</g>
</g>
</svg>
