<?xml version="1.0" encoding="UTF-8" standalone="no"?>
<!DOCTYPE svg PUBLIC "-//W3C//DTD SVG 1.1//EN"
 "http://www.w3.org/Graphics/SVG/1.1/DTD/svg11.dtd">
<!-- Generated by graphviz version 14.1.3 (20260303.0454)
 -->
<!-- Title: TinyURLRuntimeFlows Pages: 1 -->
<svg width="965pt" height="480pt"
 viewBox="0.00 0.00 965.00 480.00" xmlns="http://www.w3.org/2000/svg" xmlns:xlink="http://www.w3.org/1999/xlink">
<g id="graph0" class="graph" transform="scale(1 1) rotate(0) translate(18 461.8)">
<title>TinyURLRuntimeFlows</title>
<polygon fill="#ffffff" stroke="none" points="-18,18 -18,-461.8 947.35,-461.8 947.35,18 -18,18"/>
<!-- flows -->
<g id="node1" class="node">
<title>flows</title>
<polygon fill="#0f172a" stroke="none" points="0,-388.8 0,-443.8 929.35,-443.8 929.35,-388.8 0,-388.8"/>
<polygon fill="none" stroke="#cbd5e1" points="0,-388.8 0,-443.8 929.35,-443.8 929.35,-388.8 0,-388.8"/>
<text xml:space="preserve" text-anchor="start" x="313.9" y="-415.9" font-family="Segoe UI" font-size="14.00" fill="#0f172a"> &#160;&#160;&#160;&#160;&#160;&#160;&#160;&#160;&#160;&#160;&#160;</text>
<text xml:space="preserve" text-anchor="start" x="355.9" y="-415.9" font-family="Segoe UI" font-weight="bold" font-size="21.00" fill="#ffffff">TinyURL core runtime flows</text>
<text xml:space="preserve" text-anchor="start" x="350.65" y="-401.2" font-family="Segoe UI" font-size="14.00" fill="#0f172a"> &#160;&#160;&#160;&#160;&#160;&#160;&#160;&#160;&#160;&#160;&#160;</text>
<text xml:space="preserve" text-anchor="start" x="392.65" y="-401.2" font-family="Segoe UI" font-size="10.00" fill="#cbd5e1">Read each operation from left to right</text>
<text xml:space="preserve" text-anchor="start" x="543.7" y="-401.2" font-family="Segoe UI" font-size="14.00" fill="#0f172a"> &#160;&#160;&#160;&#160;&#160;&#160;&#160;&#160;&#160;</text>
<polygon fill="#dbeafe" stroke="none" points="0,-352 0,-388.8 165.22,-388.8 165.22,-352 0,-352"/>
<polygon fill="none" stroke="#cbd5e1" points="0,-352 0,-388.8 165.22,-388.8 165.22,-352 0,-352"/>
<text xml:space="preserve" text-anchor="start" x="58.1" y="-367.2" font-family="Segoe UI" font-weight="bold" font-size="14.00" fill="#0f172a">ENTRY</text>
<polygon fill="#dbeafe" stroke="none" points="165.22,-352 165.22,-388.8 285.51,-388.8 285.51,-352 165.22,-352"/>
<polygon fill="none" stroke="#cbd5e1" points="165.22,-352 165.22,-388.8 285.51,-388.8 285.51,-352 165.22,-352"/>
<text xml:space="preserve" text-anchor="start" x="190.36" y="-367.2" font-family="Segoe UI" font-weight="bold" font-size="14.00" fill="#0f172a">HANDLER</text>
<polygon fill="#fef3c7" stroke="none" points="285.51,-352 285.51,-388.8 452.83,-388.8 452.83,-352 285.51,-352"/>
<polygon fill="none" stroke="#cbd5e1" points="285.51,-352 285.51,-388.8 452.83,-388.8 452.83,-352 285.51,-352"/>
<text xml:space="preserve" text-anchor="start" x="335.13" y="-367.2" font-family="Segoe UI" font-weight="bold" font-size="14.00" fill="#0f172a">USE CASE</text>
<polygon fill="#dcfce7" stroke="none" points="452.83,-352 452.83,-388.8 592.57,-388.8 592.57,-352 452.83,-352"/>
<polygon fill="none" stroke="#cbd5e1" points="452.83,-352 452.83,-388.8 592.57,-388.8 592.57,-352 452.83,-352"/>
<text xml:space="preserve" text-anchor="start" x="492.76" y="-367.2" font-family="Segoe UI" font-weight="bold" font-size="14.00" fill="#0f172a">DOMAIN</text>
<polygon fill="#ede9fe" stroke="none" points="592.57,-352 592.57,-388.8 775.52,-388.8 775.52,-352 592.57,-352"/>
<polygon fill="none" stroke="#cbd5e1" points="592.57,-352 592.57,-388.8 775.52,-388.8 775.52,-352 592.57,-352"/>
<text xml:space="preserve" text-anchor="start" x="620.95" y="-367.2" font-family="Segoe UI" font-weight="bold" font-size="14.00" fill="#0f172a">PORT &#45;&gt; ADAPTER</text>
<polygon fill="#ffedd5" stroke="none" points="775.52,-352 775.52,-388.8 929.35,-388.8 929.35,-352 775.52,-352"/>
<polygon fill="none" stroke="#cbd5e1" points="775.52,-352 775.52,-388.8 929.35,-388.8 929.35,-352 775.52,-352"/>
<text xml:space="preserve" text-anchor="start" x="824.43" y="-367.2" font-family="Segoe UI" font-weight="bold" font-size="14.00" fill="#0f172a">RESULT</text>
<polygon fill="none" stroke="#cbd5e1" points="0,-248 0,-352 165.22,-352 165.22,-248 0,-248"/>
<text xml:space="preserve" text-anchor="start" x="10" y="-296.8" font-family="Segoe UI" font-weight="bold" font-size="14.00" fill="#0f172a">POST /v1/links</text>
<polygon fill="none" stroke="#cbd5e1" points="165.22,-248 165.22,-352 285.51,-352 285.51,-248 165.22,-248"/>
<text xml:space="preserve" text-anchor="start" x="175.22" y="-302.8" font-family="Segoe UI" font-size="14.00" fill="#0f172a">handleCreateLink</text>
<text xml:space="preserve" text-anchor="start" x="189.4" y="-286" font-family="Segoe UI" font-size="14.00" fill="#0f172a">decode DTO</text>
<polygon fill="#fffbeb" stroke="none" points="285.51,-248 285.51,-352 452.83,-352 452.83,-248 285.51,-248"/>
<polygon fill="none" stroke="#cbd5e1" points="285.51,-248 285.51,-352 452.83,-352 452.83,-248 285.51,-248"/>
<text xml:space="preserve" text-anchor="start" x="295.51" y="-328" font-family="Segoe UI" font-size="14.00" fill="#0f172a">CreateGeneratedLink</text>
<text xml:space="preserve" text-anchor="start" x="333.21" y="-311.2" font-family="Segoe UI" font-size="14.00" fill="#0f172a">Execute</text>
<text xml:space="preserve" text-anchor="start" x="298.4" y="-294.4" font-family="Segoe UI" font-size="14.00" fill="#0f172a">idempotency lookup</text>
<text xml:space="preserve" text-anchor="start" x="317.08" y="-277.6" font-family="Segoe UI" font-size="14.00" fill="#0f172a">generate code</text>
<text xml:space="preserve" text-anchor="start" x="312.41" y="-260.8" font-family="Segoe UI" font-size="14.00" fill="#0f172a">build aggregate</text>
<polygon fill="#f0fdf4" stroke="none" points="452.83,-248 452.83,-352 592.57,-352 592.57,-248 452.83,-248"/>
<polygon fill="none" stroke="#cbd5e1" points="452.83,-248 452.83,-352 592.57,-352 592.57,-248 452.83,-248"/>
<text xml:space="preserve" text-anchor="start" x="462.83" y="-302.8" font-family="Segoe UI" font-size="14.00" fill="#0f172a">NewDestinationURL</text>
<text xml:space="preserve" text-anchor="start" x="495.89" y="-286" font-family="Segoe UI" font-size="14.00" fill="#0f172a">NewLink</text>
<polygon fill="#faf5ff" stroke="none" points="592.57,-248 592.57,-352 775.52,-352 775.52,-248 592.57,-248"/>
<polygon fill="none" stroke="#cbd5e1" points="592.57,-248 592.57,-352 775.52,-352 775.52,-248 592.57,-248"/>
<text xml:space="preserve" text-anchor="start" x="612.88" y="-319.6" font-family="Segoe UI" font-size="14.00" fill="#0f172a">IdempotencyStore</text>
<text xml:space="preserve" text-anchor="start" x="621.44" y="-302.8" font-family="Segoe UI" font-size="14.00" fill="#0f172a">CodeGenerator</text>
<text xml:space="preserve" text-anchor="start" x="647.48" y="-286" font-family="Segoe UI" font-size="14.00" fill="#0f172a">Clock</text>
<text xml:space="preserve" text-anchor="start" x="602.57" y="-269.2" font-family="Segoe UI" font-size="14.00" fill="#0f172a">LinkRepository.Insert</text>
<polygon fill="#fff7ed" stroke="none" points="775.52,-248 775.52,-352 929.35,-352 929.35,-248 775.52,-248"/>
<polygon fill="none" stroke="#cbd5e1" points="775.52,-248 775.52,-352 929.35,-352 929.35,-248 775.52,-248"/>
<text xml:space="preserve" text-anchor="start" x="818.7" y="-309.4" font-family="Segoe UI" font-size="14.00" fill="#0f172a">links +</text>
<text xml:space="preserve" text-anchor="start" x="785.52" y="-295.4" font-family="Segoe UI" font-size="14.00" fill="#0f172a">idempotency_keys</text>
<text xml:space="preserve" text-anchor="start" x="827.51" y="-281.4" font-family="Segoe UI" font-weight="bold" font-size="14.00" fill="#0f172a">201</text>
<polygon fill="#f8fafc" stroke="none" points="0,-177.6 0,-248 165.22,-248 165.22,-177.6 0,-177.6"/>
<polygon fill="none" stroke="#cbd5e1" points="0,-177.6 0,-248 165.22,-248 165.22,-177.6 0,-177.6"/>
<text xml:space="preserve" text-anchor="start" x="10" y="-209.6" font-family="Segoe UI" font-weight="bold" font-size="14.00" fill="#0f172a">GET /{code}</text>
<polygon fill="#f8fafc" stroke="none" points="165.22,-177.6 165.22,-248 285.51,-248 285.51,-177.6 165.22,-177.6"/>
<polygon fill="none" stroke="#cbd5e1" points="165.22,-177.6 165.22,-248 285.51,-248 285.51,-177.6 165.22,-177.6"/>
<text xml:space="preserve" text-anchor="start" x="175.22" y="-207.2" font-family="Segoe UI" font-size="14.00" fill="#0f172a">handleRedirect</text>
<polygon fill="#fef3c7" stroke="none" points="285.51,-177.6 285.51,-248 452.83,-248 452.83,-177.6 285.51,-177.6"/>
<polygon fill="none" stroke="#cbd5e1" points="285.51,-177.6 285.51,-248 452.83,-248 452.83,-177.6 285.51,-177.6"/>
<text xml:space="preserve" text-anchor="start" x="295.51" y="-207.2" font-family="Segoe UI" font-size="14.00" fill="#0f172a">RedirectLink.Execute</text>
<polygon fill="#dcfce7" stroke="none" points="452.83,-177.6 452.83,-248 592.57,-248 592.57,-177.6 452.83,-177.6"/>
<polygon fill="none" stroke="#cbd5e1" points="452.83,-177.6 452.83,-248 592.57,-248 592.57,-177.6 452.83,-177.6"/>
<text xml:space="preserve" text-anchor="start" x="474.1" y="-224" font-family="Segoe UI" font-size="14.00" fill="#0f172a">RehydrateLink</text>
<text xml:space="preserve" text-anchor="start" x="481.1" y="-207.2" font-family="Segoe UI" font-size="14.00" fill="#0f172a">CanRedirect</text>
<text xml:space="preserve" text-anchor="start" x="462.83" y="-190.4" font-family="Segoe UI" font-size="14.00" fill="#0f172a">NewRedirectEvent</text>
<polygon fill="#ede9fe" stroke="none" points="592.57,-177.6 592.57,-248 775.52,-248 775.52,-177.6 592.57,-177.6"/>
<polygon fill="none" stroke="#cbd5e1" points="592.57,-177.6 592.57,-248 775.52,-248 775.52,-177.6 592.57,-177.6"/>
<text xml:space="preserve" text-anchor="start" x="602.57" y="-224" font-family="Segoe UI" font-size="14.00" fill="#0f172a">LinkRepository.FindByCode</text>
<text xml:space="preserve" text-anchor="start" x="667.33" y="-207.2" font-family="Segoe UI" font-size="14.00" fill="#0f172a">Clock</text>
<text xml:space="preserve" text-anchor="start" x="618.36" y="-190.4" font-family="Segoe UI" font-size="14.00" fill="#0f172a">RedirectEventRecorder</text>
<polygon fill="#ffedd5" stroke="none" points="775.52,-177.6 775.52,-248 929.35,-248 929.35,-177.6 775.52,-177.6"/>
<polygon fill="none" stroke="#cbd5e1" points="775.52,-177.6 775.52,-248 929.35,-248 929.35,-177.6 775.52,-177.6"/>
<text xml:space="preserve" text-anchor="start" x="785.52" y="-215.2" font-family="Segoe UI" font-size="14.00" fill="#0f172a">read link + record event</text>
<text xml:space="preserve" text-anchor="start" x="821.33" y="-201.2" font-family="Segoe UI" font-weight="bold" font-size="14.00" fill="#0f172a">302 or 404</text>
<polygon fill="none" stroke="#cbd5e1" points="0,-124 0,-177.6 165.22,-177.6 165.22,-124 0,-124"/>
<text xml:space="preserve" text-anchor="start" x="10" y="-147.6" font-family="Segoe UI" font-weight="bold" font-size="14.00" fill="#0f172a">GET /v1/links/{code}</text>
<polygon fill="none" stroke="#cbd5e1" points="165.22,-124 165.22,-177.6 285.51,-177.6 285.51,-124 165.22,-124"/>
<text xml:space="preserve" text-anchor="start" x="175.22" y="-153.6" font-family="Segoe UI" font-size="14.00" fill="#0f172a">Management</text>
<text xml:space="preserve" text-anchor="start" x="177.36" y="-136.8" font-family="Segoe UI" font-size="14.00" fill="#0f172a">Handler.Get</text>
<polygon fill="#fffbeb" stroke="none" points="285.51,-124 285.51,-177.6 452.83,-177.6 452.83,-124 285.51,-124"/>
<polygon fill="none" stroke="#cbd5e1" points="285.51,-124 285.51,-177.6 452.83,-177.6 452.83,-124 285.51,-124"/>
<text xml:space="preserve" text-anchor="start" x="295.51" y="-145.2" font-family="Segoe UI" font-size="14.00" fill="#0f172a">GetManagedLink.Execute</text>
<polygon fill="#f0fdf4" stroke="none" points="452.83,-124 452.83,-177.6 592.57,-177.6 592.57,-124 452.83,-124"/>
<polygon fill="none" stroke="#cbd5e1" points="452.83,-124 452.83,-177.6 592.57,-177.6 592.57,-124 452.83,-124"/>
<text xml:space="preserve" text-anchor="start" x="462.83" y="-153.6" font-family="Segoe UI" font-size="14.00" fill="#0f172a">verify Link.OwnerID</text>
<text xml:space="preserve" text-anchor="start" x="467.11" y="-136.8" font-family="Segoe UI" font-size="14.00" fill="#0f172a">return Link.Version</text>
<polygon fill="#faf5ff" stroke="none" points="592.57,-124 592.57,-177.6 775.52,-177.6 775.52,-124 592.57,-124"/>
<polygon fill="none" stroke="#cbd5e1" points="592.57,-124 592.57,-177.6 775.52,-177.6 775.52,-124 592.57,-124"/>
<text xml:space="preserve" text-anchor="start" x="602.57" y="-145.2" font-family="Segoe UI" font-size="14.00" fill="#0f172a">LinkRepository.FindByCode</text>
<polygon fill="#fff7ed" stroke="none" points="775.52,-124 775.52,-177.6 929.35,-177.6 929.35,-124 775.52,-124"/>
<polygon fill="none" stroke="#cbd5e1" points="775.52,-124 775.52,-177.6 929.35,-177.6 929.35,-124 775.52,-124"/>
<text xml:space="preserve" text-anchor="start" x="785.52" y="-153.2" font-family="Segoe UI" font-size="14.00" fill="#0f172a">Link DTO + ETag</text>
<text xml:space="preserve" text-anchor="start" x="806.38" y="-139.2" font-family="Segoe UI" font-weight="bold" font-size="14.00" fill="#0f172a">200 or 404</text>
<polygon fill="#f8fafc" stroke="none" points="0,-53.6 0,-124 165.22,-124 165.22,-53.6 0,-53.6"/>
<polygon fill="none" stroke="#cbd5e1" points="0,-53.6 0,-124 165.22,-124 165.22,-53.6 0,-53.6"/>
<text xml:space="preserve" text-anchor="start" x="10" y="-91.2" font-family="Segoe UI" font-weight="bold" font-size="14.00" fill="#0f172a">PATCH /v1/links/{code}</text>
<text xml:space="preserve" text-anchor="start" x="57.73" y="-77.2" font-family="Segoe UI" font-size="14.00" fill="#0f172a">If&#45;Match</text>
<polygon fill="#f8fafc" stroke="none" points="165.22,-53.6 165.22,-124 285.51,-124 285.51,-53.6 165.22,-53.6"/>
<polygon fill="none" stroke="#cbd5e1" points="165.22,-53.6 165.22,-124 285.51,-124 285.51,-53.6 165.22,-53.6"/>
<text xml:space="preserve" text-anchor="start" x="181.04" y="-100" font-family="Segoe UI" font-size="14.00" fill="#0f172a">Management</text>
<text xml:space="preserve" text-anchor="start" x="177.74" y="-83.2" font-family="Segoe UI" font-size="14.00" fill="#0f172a">Handler.Patch</text>
<text xml:space="preserve" text-anchor="start" x="175.22" y="-66.4" font-family="Segoe UI" font-size="14.00" fill="#0f172a">select one field</text>
<polygon fill="#fef3c7" stroke="none" points="285.51,-53.6 285.51,-124 452.83,-124 452.83,-53.6 285.51,-53.6"/>
<polygon fill="none" stroke="#cbd5e1" points="285.51,-53.6 285.51,-124 452.83,-124 452.83,-53.6 285.51,-53.6"/>
<text xml:space="preserve" text-anchor="start" x="310.28" y="-100" font-family="Segoe UI" font-size="14.00" fill="#0f172a">Change status</text>
<text xml:space="preserve" text-anchor="start" x="295.51" y="-83.2" font-family="Segoe UI" font-size="14.00" fill="#0f172a">Change destination</text>
<text xml:space="preserve" text-anchor="start" x="297.84" y="-66.4" font-family="Segoe UI" font-size="14.00" fill="#0f172a">Change expiration</text>
<polygon fill="#dcfce7" stroke="none" points="452.83,-53.6 452.83,-124 592.57,-124 592.57,-53.6 452.83,-53.6"/>
<polygon fill="none" stroke="#cbd5e1" points="452.83,-53.6 452.83,-124 592.57,-124 592.57,-53.6 452.83,-53.6"/>
<text xml:space="preserve" text-anchor="start" x="462.83" y="-100" font-family="Segoe UI" font-size="14.00" fill="#0f172a">validate transition</text>
<text xml:space="preserve" text-anchor="start" x="479.16" y="-83.2" font-family="Segoe UI" font-size="14.00" fill="#0f172a">mutate Link</text>
<text xml:space="preserve" text-anchor="start" x="484.68" y="-66.4" font-family="Segoe UI" font-size="14.00" fill="#0f172a">version++</text>
<polygon fill="#ede9fe" stroke="none" points="592.57,-53.6 592.57,-124 775.52,-124 775.52,-53.6 592.57,-53.6"/>
<polygon fill="none" stroke="#cbd5e1" points="592.57,-53.6 592.57,-124 775.52,-124 775.52,-53.6 592.57,-53.6"/>
<text xml:space="preserve" text-anchor="start" x="602.57" y="-100" font-family="Segoe UI" font-size="14.00" fill="#0f172a">LinkRepository.FindByCode</text>
<text xml:space="preserve" text-anchor="start" x="618.14" y="-83.2" font-family="Segoe UI" font-size="14.00" fill="#0f172a">LinkRepository.Update</text>
<text xml:space="preserve" text-anchor="start" x="667.33" y="-66.4" font-family="Segoe UI" font-size="14.00" fill="#0f172a">Clock</text>
<polygon fill="#ffedd5" stroke="none" points="775.52,-53.6 775.52,-124 929.35,-124 929.35,-53.6 775.52,-53.6"/>
<polygon fill="none" stroke="#cbd5e1" points="775.52,-53.6 775.52,-124 929.35,-124 929.35,-53.6 775.52,-53.6"/>
<text xml:space="preserve" text-anchor="start" x="785.52" y="-91.2" font-family="Segoe UI" font-size="14.00" fill="#0f172a">optimistic UPDATE</text>
<text xml:space="preserve" text-anchor="start" x="796.02" y="-77.2" font-family="Segoe UI" font-weight="bold" font-size="14.00" fill="#0f172a">200, 404, or 412</text>
<polygon fill="none" stroke="#cbd5e1" points="0,0 0,-53.6 165.22,-53.6 165.22,0 0,0"/>
<text xml:space="preserve" text-anchor="start" x="10" y="-23.6" font-family="Segoe UI" font-weight="bold" font-size="14.00" fill="#0f172a">GET /readyz</text>
<polygon fill="none" stroke="#cbd5e1" points="165.22,0 165.22,-53.6 285.51,-53.6 285.51,0 165.22,0"/>
<text xml:space="preserve" text-anchor="start" x="175.22" y="-29.6" font-family="Segoe UI" font-size="14.00" fill="#0f172a">health.Handler</text>
<text xml:space="preserve" text-anchor="start" x="188.23" y="-12.8" font-family="Segoe UI" font-size="14.00" fill="#0f172a">Readiness</text>
<polygon fill="#fffbeb" stroke="none" points="285.51,0 285.51,-53.6 452.83,-53.6 452.83,0 285.51,0"/>
<polygon fill="none" stroke="#cbd5e1" points="285.51,0 285.51,-53.6 452.83,-53.6 452.83,0 285.51,0"/>
<text xml:space="preserve" text-anchor="start" x="295.51" y="-21.2" font-family="Segoe UI" font-size="14.00" fill="#0f172a">2&#45;second child context</text>
<polygon fill="#f0fdf4" stroke="none" points="452.83,0 452.83,-53.6 592.57,-53.6 592.57,0 452.83,0"/>
<polygon fill="none" stroke="#cbd5e1" points="452.83,0 452.83,-53.6 592.57,-53.6 592.57,0 452.83,0"/>
<text xml:space="preserve" text-anchor="start" x="462.83" y="-21.2" font-family="Segoe UI" font-size="14.00" fill="#0f172a">no link&#45;domain call</text>
<polygon fill="#faf5ff" stroke="none" points="592.57,0 592.57,-53.6 775.52,-53.6 775.52,0 592.57,0"/>
<polygon fill="none" stroke="#cbd5e1" points="592.57,0 592.57,-53.6 775.52,-53.6 775.52,0 592.57,0"/>
<text xml:space="preserve" text-anchor="start" x="602.57" y="-29.6" font-family="Segoe UI" font-size="14.00" fill="#0f172a">Checker &#45;&gt; CheckerFunc</text>
<text xml:space="preserve" text-anchor="start" x="637.93" y="-12.8" font-family="Segoe UI" font-size="14.00" fill="#0f172a">&#45;&gt; pool.Ping</text>
<polygon fill="#fff7ed" stroke="none" points="775.52,0 775.52,-53.6 929.35,-53.6 929.35,0 775.52,0"/>
<polygon fill="none" stroke="#cbd5e1" points="775.52,0 775.52,-53.6 929.35,-53.6 929.35,0 775.52,0"/>
<text xml:space="preserve" text-anchor="start" x="785.52" y="-23.6" font-family="Segoe UI" font-weight="bold" font-size="14.00" fill="#0f172a">200 or 503</text>
</g>
</g>
</svg>
