<?xml version="1.0" encoding="UTF-8" standalone="no"?>
<!DOCTYPE svg PUBLIC "-//W3C//DTD SVG 1.1//EN"
 "http://www.w3.org/Graphics/SVG/1.1/DTD/svg11.dtd">
<!-- Generated by graphviz version 14.1.3 (20260303.0454)
 -->
<!-- Title: TinyURLServiceLLD Pages: 1 -->
<svg width="1509pt" height="418pt"
 viewBox="0.00 0.00 1509.00 418.00" xmlns="http://www.w3.org/2000/svg" xmlns:xlink="http://www.w3.org/1999/xlink">
<g id="graph0" class="graph" transform="scale(1 1) rotate(0) translate(21.6 396)">
<title>TinyURLServiceLLD</title>
<polygon fill="#ffffff" stroke="none" points="-21.6,21.6 -21.6,-396 1487.54,-396 1487.54,21.6 -21.6,21.6"/>
<text xml:space="preserve" text-anchor="middle" x="732.97" y="-352.4" font-family="Segoe UI" font-size="20.00">linkd low&#45;level component map</text>
<!-- main -->
<g id="node1" class="node">
<title>main</title>
<path fill="#e2e8f0" stroke="#64748b" stroke-width="2" d="M117.72,-154.4C117.72,-154.4 12,-154.4 12,-154.4 6,-154.4 0,-148.4 0,-142.4 0,-142.4 0,-68 0,-68 0,-62 6,-56 12,-56 12,-56 117.72,-56 117.72,-56 123.72,-56 129.72,-62 129.72,-68 129.72,-68 129.72,-142.4 129.72,-142.4 129.72,-148.4 123.72,-154.4 117.72,-154.4"/>
<text xml:space="preserve" text-anchor="middle" x="64.86" y="-138.2" font-family="Segoe UI" font-size="10.00" fill="#0f172a">COMPOSITION ROOT</text>
<text xml:space="preserve" text-anchor="middle" x="64.86" y="-126.2" font-family="Segoe UI" font-size="10.00" fill="#0f172a">cmd/linkd/main.go</text>
<text xml:space="preserve" text-anchor="middle" x="64.86" y="-102.2" font-family="Segoe UI" font-size="10.00" fill="#0f172a">loads config</text>
<text xml:space="preserve" text-anchor="middle" x="64.86" y="-90.2" font-family="Segoe UI" font-size="10.00" fill="#0f172a">selects storage</text>
<text xml:space="preserve" text-anchor="middle" x="64.86" y="-78.2" font-family="Segoe UI" font-size="10.00" fill="#0f172a">constructs + injects objects</text>
<text xml:space="preserve" text-anchor="middle" x="64.86" y="-66.2" font-family="Segoe UI" font-size="10.00" fill="#0f172a">starts + stops server</text>
</g>
<!-- inbound -->
<g id="node2" class="node">
<title>inbound</title>
<path fill="#dbeafe" stroke="#2563eb" stroke-width="1.8" d="M351.54,-242.4C351.54,-242.4 226.15,-242.4 226.15,-242.4 220.15,-242.4 214.15,-236.4 214.15,-230.4 214.15,-230.4 214.15,-156 214.15,-156 214.15,-150 220.15,-144 226.15,-144 226.15,-144 351.54,-144 351.54,-144 357.54,-144 363.54,-150 363.54,-156 363.54,-156 363.54,-230.4 363.54,-230.4 363.54,-236.4 357.54,-242.4 351.54,-242.4"/>
<text xml:space="preserve" text-anchor="middle" x="288.84" y="-226.2" font-family="Segoe UI" font-size="10.00" fill="#0f172a">INBOUND HTTP ADAPTERS</text>
<text xml:space="preserve" text-anchor="middle" x="288.84" y="-214.2" font-family="Segoe UI" font-size="10.00" fill="#0f172a">internal/link/adapters/httpapi</text>
<text xml:space="preserve" text-anchor="middle" x="288.84" y="-190.2" font-family="Segoe UI" font-size="10.00" fill="#0f172a">Handler</text>
<text xml:space="preserve" text-anchor="middle" x="288.84" y="-178.2" font-family="Segoe UI" font-size="10.00" fill="#0f172a">ManagementHandler</text>
<text xml:space="preserve" text-anchor="middle" x="288.84" y="-154.2" font-family="Segoe UI" font-size="10.00" fill="#0f172a">health.Handler</text>
</g>
<!-- main&#45;&gt;inbound -->
<g id="edge1" class="edge">
<title>main&#45;&gt;inbound</title>
<path fill="none" stroke="#334155" stroke-width="1.25" d="M130.66,-130.89C154.1,-140.18 180.89,-150.8 205.63,-160.61"/>
<polygon fill="#334155" stroke="#334155" stroke-width="1.25" points="204.41,-162.76 211.82,-163.06 206.22,-158.21 204.41,-162.76"/>
<text xml:space="preserve" text-anchor="middle" x="171.93" y="-154.24" font-family="Segoe UI" font-size="8.00" fill="#475569">constructs</text>
</g>
<!-- application -->
<g id="node3" class="node">
<title>application</title>
<path fill="#fef3c7" stroke="#d97706" stroke-width="1.8" d="M588.13,-254.4C588.13,-254.4 469.96,-254.4 469.96,-254.4 463.96,-254.4 457.96,-248.4 457.96,-242.4 457.96,-242.4 457.96,-144 457.96,-144 457.96,-138 463.96,-132 469.96,-132 469.96,-132 588.13,-132 588.13,-132 594.13,-132 600.13,-138 600.13,-144 600.13,-144 600.13,-242.4 600.13,-242.4 600.13,-248.4 594.13,-254.4 588.13,-254.4"/>
<text xml:space="preserve" text-anchor="middle" x="529.04" y="-238.2" font-family="Segoe UI" font-size="10.00" fill="#0f172a">APPLICATION USE CASES</text>
<text xml:space="preserve" text-anchor="middle" x="529.04" y="-226.2" font-family="Segoe UI" font-size="10.00" fill="#0f172a">internal/link/application</text>
<text xml:space="preserve" text-anchor="middle" x="529.04" y="-202.2" font-family="Segoe UI" font-size="10.00" fill="#0f172a">CreateGeneratedLink</text>
<text xml:space="preserve" text-anchor="middle" x="529.04" y="-190.2" font-family="Segoe UI" font-size="10.00" fill="#0f172a">RedirectLink</text>
<text xml:space="preserve" text-anchor="middle" x="529.04" y="-178.2" font-family="Segoe UI" font-size="10.00" fill="#0f172a">GetManagedLink</text>
<text xml:space="preserve" text-anchor="middle" x="529.04" y="-166.2" font-family="Segoe UI" font-size="10.00" fill="#0f172a">ChangeLinkStatus</text>
<text xml:space="preserve" text-anchor="middle" x="529.04" y="-154.2" font-family="Segoe UI" font-size="10.00" fill="#0f172a">ChangeLinkDestination</text>
<text xml:space="preserve" text-anchor="middle" x="529.04" y="-142.2" font-family="Segoe UI" font-size="10.00" fill="#0f172a">ChangeLinkExpiration</text>
</g>
<!-- main&#45;&gt;application -->
<g id="edge2" class="edge">
<title>main&#45;&gt;application</title>
<path fill="none" stroke="#64748b" stroke-width="1.25" stroke-dasharray="1,5" d="M130.45,-108.32C218,-112.56 363.54,-119.6 363.54,-119.6 363.54,-119.6 407.14,-139.11 449.45,-158.04"/>
<polygon fill="#64748b" stroke="#64748b" stroke-width="1.25" points="448.21,-160.16 455.6,-160.79 450.21,-155.69 448.21,-160.16"/>
<text xml:space="preserve" text-anchor="middle" x="288.84" y="-122" font-family="Segoe UI" font-size="8.00" fill="#475569">constructs + injects</text>
</g>
<!-- adapters -->
<g id="node6" class="node">
<title>adapters</title>
<path fill="#cffafe" stroke="#0891b2" stroke-width="1.8" d="M1174.6,-98.4C1174.6,-98.4 1066.72,-98.4 1066.72,-98.4 1060.72,-98.4 1054.72,-92.4 1054.72,-86.4 1054.72,-86.4 1054.72,-12 1054.72,-12 1054.72,-6 1060.72,0 1066.72,0 1066.72,0 1174.6,0 1174.6,0 1180.6,0 1186.6,-6 1186.6,-12 1186.6,-12 1186.6,-86.4 1186.6,-86.4 1186.6,-92.4 1180.6,-98.4 1174.6,-98.4"/>
<text xml:space="preserve" text-anchor="middle" x="1120.66" y="-82.2" font-family="Segoe UI" font-size="10.00" fill="#0f172a">OUTBOUND ADAPTERS</text>
<text xml:space="preserve" text-anchor="middle" x="1120.66" y="-58.2" font-family="Segoe UI" font-size="10.00" fill="#0f172a">memory/*</text>
<text xml:space="preserve" text-anchor="middle" x="1120.66" y="-46.2" font-family="Segoe UI" font-size="10.00" fill="#0f172a">postgres/*</text>
<text xml:space="preserve" text-anchor="middle" x="1120.66" y="-34.2" font-family="Segoe UI" font-size="10.00" fill="#0f172a">codegen.Base62Generator</text>
<text xml:space="preserve" text-anchor="middle" x="1120.66" y="-22.2" font-family="Segoe UI" font-size="10.00" fill="#0f172a">system.SystemClock</text>
<text xml:space="preserve" text-anchor="middle" x="1120.66" y="-10.2" font-family="Segoe UI" font-size="10.00" fill="#0f172a">health.CheckerFunc</text>
</g>
<!-- main&#45;&gt;adapters -->
<g id="edge3" class="edge">
<title>main&#45;&gt;adapters</title>
<path fill="none" stroke="#64748b" stroke-width="1.25" stroke-dasharray="1,5" d="M130.66,-81.85C196.18,-58.23 287.84,-25.2 287.84,-25.2 287.84,-25.2 287.84,-25.2 815.46,-25.2 815.46,-25.2 955.14,-36.22 1045.2,-43.33"/>
<polygon fill="#64748b" stroke="#64748b" stroke-width="1.25" points="1044.97,-45.76 1052.14,-43.87 1045.35,-40.88 1044.97,-45.76"/>
<text xml:space="preserve" text-anchor="middle" x="529.04" y="-27.6" font-family="Segoe UI" font-size="8.00" fill="#475569">selects concrete types</text>
</g>
<!-- inbound&#45;&gt;application -->
<g id="edge4" class="edge">
<title>inbound&#45;&gt;application</title>
<path fill="none" stroke="#334155" stroke-width="1.25" d="M364.23,-193.2C390.96,-193.2 421.2,-193.2 448.36,-193.2"/>
<polygon fill="#334155" stroke="#334155" stroke-width="1.25" points="448.17,-195.65 455.17,-193.2 448.17,-190.75 448.17,-195.65"/>
<text xml:space="preserve" text-anchor="middle" x="410.75" y="-195.6" font-family="Segoe UI" font-size="8.00" fill="#475569">calls Execute</text>
</g>
<!-- ports -->
<g id="node5" class="node">
<title>ports</title>
<path fill="#ede9fe" stroke="#7c3aed" stroke-width="2" d="M879.2,-203.4C879.2,-203.4 749.72,-203.4 749.72,-203.4 743.72,-203.4 737.72,-197.4 737.72,-191.4 737.72,-191.4 737.72,-81 737.72,-81 737.72,-75 743.72,-69 749.72,-69 749.72,-69 879.2,-69 879.2,-69 885.2,-69 891.2,-75 891.2,-81 891.2,-81 891.2,-191.4 891.2,-191.4 891.2,-197.4 885.2,-203.4 879.2,-203.4"/>
<text xml:space="preserve" text-anchor="middle" x="814.46" y="-187.2" font-family="Segoe UI" font-size="10.00" fill="#0f172a">PORTS / INTERFACES</text>
<text xml:space="preserve" text-anchor="middle" x="814.46" y="-175.2" font-family="Segoe UI" font-size="10.00" fill="#0f172a">internal/link/ports</text>
<text xml:space="preserve" text-anchor="middle" x="814.46" y="-151.2" font-family="Segoe UI" font-size="10.00" fill="#0f172a">LinkRepository</text>
<text xml:space="preserve" text-anchor="middle" x="814.46" y="-139.2" font-family="Segoe UI" font-size="10.00" fill="#0f172a">IdempotencyStore</text>
<text xml:space="preserve" text-anchor="middle" x="814.46" y="-127.2" font-family="Segoe UI" font-size="10.00" fill="#0f172a">CodeGenerator</text>
<text xml:space="preserve" text-anchor="middle" x="814.46" y="-115.2" font-family="Segoe UI" font-size="10.00" fill="#0f172a">Clock</text>
<text xml:space="preserve" text-anchor="middle" x="814.46" y="-91.2" font-family="Segoe UI" font-size="10.00" fill="#0f172a">analytics.RedirectEventRecorder</text>
<text xml:space="preserve" text-anchor="middle" x="814.46" y="-79.2" font-family="Segoe UI" font-size="10.00" fill="#0f172a">health.Checker</text>
</g>
<!-- inbound&#45;&gt;ports -->
<g id="edge5" class="edge">
<title>inbound&#45;&gt;ports</title>
<path fill="none" stroke="#334155" stroke-width="1.25" d="M364.07,-155.41C409.11,-132.47 457.96,-107.6 457.96,-107.6 457.96,-107.6 600.13,-107.6 600.13,-107.6 600.13,-107.6 668.68,-116.79 728.06,-124.75"/>
<polygon fill="#334155" stroke="#334155" stroke-width="1.25" points="727.61,-127.16 734.87,-125.66 728.26,-122.31 727.61,-127.16"/>
<text xml:space="preserve" text-anchor="middle" x="529.04" y="-110" font-family="Segoe UI" font-size="8.00" fill="#475569">records analytics / checks readiness</text>
</g>
<!-- domain -->
<g id="node4" class="node">
<title>domain</title>
<path fill="#dcfce7" stroke="#16a34a" stroke-width="1.8" d="M871.86,-342.4C871.86,-342.4 757.07,-342.4 757.07,-342.4 751.07,-342.4 745.07,-336.4 745.07,-330.4 745.07,-330.4 745.07,-244 745.07,-244 745.07,-238 751.07,-232 757.07,-232 757.07,-232 871.86,-232 871.86,-232 877.86,-232 883.86,-238 883.86,-244 883.86,-244 883.86,-330.4 883.86,-330.4 883.86,-336.4 877.86,-342.4 871.86,-342.4"/>
<text xml:space="preserve" text-anchor="middle" x="814.46" y="-326.2" font-family="Segoe UI" font-size="10.00" fill="#0f172a">DOMAIN MODEL</text>
<text xml:space="preserve" text-anchor="middle" x="814.46" y="-314.2" font-family="Segoe UI" font-size="10.00" fill="#0f172a">internal/link/domain</text>
<text xml:space="preserve" text-anchor="middle" x="814.46" y="-290.2" font-family="Segoe UI" font-size="10.00" fill="#0f172a">Link aggregate</text>
<text xml:space="preserve" text-anchor="middle" x="814.46" y="-278.2" font-family="Segoe UI" font-size="10.00" fill="#0f172a">DestinationURL value object</text>
<text xml:space="preserve" text-anchor="middle" x="814.46" y="-266.2" font-family="Segoe UI" font-size="10.00" fill="#0f172a">LinkStatus state machine</text>
<text xml:space="preserve" text-anchor="middle" x="814.46" y="-242.2" font-family="Segoe UI" font-size="10.00" fill="#0f172a">analytics.RedirectEvent</text>
</g>
<!-- application&#45;&gt;domain -->
<g id="edge6" class="edge">
<title>application&#45;&gt;domain</title>
<path fill="none" stroke="#15803d" stroke-width="1.25" d="M600.83,-216.68C642.03,-230.34 693.99,-247.58 736.24,-261.59"/>
<polygon fill="#15803d" stroke="#15803d" stroke-width="1.25" points="735.34,-263.87 742.76,-263.75 736.89,-259.22 735.34,-263.87"/>
<text xml:space="preserve" text-anchor="middle" x="668.92" y="-253.78" font-family="Segoe UI" font-size="8.00" fill="#475569">creates + invokes behavior</text>
</g>
<!-- application&#45;&gt;ports -->
<g id="edge7" class="edge">
<title>application&#45;&gt;ports</title>
<path fill="none" stroke="#334155" stroke-width="1.25" d="M600.83,-178.96C639.48,-171.19 687.61,-161.51 728.31,-153.33"/>
<polygon fill="#334155" stroke="#334155" stroke-width="1.25" points="728.64,-155.76 735.02,-151.98 727.67,-150.96 728.64,-155.76"/>
<text xml:space="preserve" text-anchor="middle" x="668.92" y="-175.54" font-family="Segoe UI" font-size="8.00" fill="#475569">depends on contracts</text>
</g>
<!-- ports&#45;&gt;adapters -->
<g id="edge8" class="edge">
<title>ports&#45;&gt;adapters</title>
<path fill="none" stroke="#7c3aed" stroke-width="1.25" stroke-dasharray="5,2" d="M891.83,-114.36C938.8,-100.92 998.71,-83.79 1045.3,-70.47"/>
<polygon fill="none" stroke="#7c3aed" stroke-width="1.25" points="1045.97,-72.82 1052.02,-68.54 1044.62,-68.11 1045.97,-72.82"/>
<text xml:space="preserve" text-anchor="middle" x="972.96" y="-107.98" font-family="Segoe UI" font-size="8.00" fill="#7c3aed">implemented implicitly</text>
</g>
<!-- adapters&#45;&gt;domain -->
<g id="edge9" class="edge">
<title>adapters&#45;&gt;domain</title>
<path fill="none" stroke="#15803d" stroke-width="1.25" d="M1057.49,-99.1C1041.5,-111.93 1028.72,-122.2 1028.72,-122.2 1028.72,-122.2 952.92,-180.84 891.71,-228.21"/>
<polygon fill="#15803d" stroke="#15803d" stroke-width="1.25" points="890.23,-226.25 886.2,-232.47 893.23,-230.13 890.23,-226.25"/>
<text xml:space="preserve" text-anchor="middle" x="972.96" y="-207.1" font-family="Segoe UI" font-size="8.00" fill="#475569">rehydrates / accepts domain values</text>
</g>
<!-- resources -->
<g id="node7" class="node">
<title>resources</title>
<path fill="#ffedd5" stroke="#ea580c" stroke-width="1.8" d="M1453.94,-92.4C1453.94,-92.4 1292.14,-92.4 1292.14,-92.4 1286.14,-92.4 1280.14,-86.4 1280.14,-80.4 1280.14,-80.4 1280.14,-18 1280.14,-18 1280.14,-12 1286.14,-6 1292.14,-6 1292.14,-6 1453.94,-6 1453.94,-6 1459.94,-6 1465.94,-12 1465.94,-18 1465.94,-18 1465.94,-80.4 1465.94,-80.4 1465.94,-86.4 1459.94,-92.4 1453.94,-92.4"/>
<text xml:space="preserve" text-anchor="middle" x="1373.04" y="-76.2" font-family="Segoe UI" font-size="10.00" fill="#0f172a">EXTERNAL / PROCESS RESOURCES</text>
<text xml:space="preserve" text-anchor="middle" x="1373.04" y="-52.2" font-family="Segoe UI" font-size="10.00" fill="#0f172a">pgxpool.Pool &#45;&gt; Postgres</text>
<text xml:space="preserve" text-anchor="middle" x="1373.04" y="-40.2" font-family="Segoe UI" font-size="10.00" fill="#0f172a">in&#45;memory maps + mutexes</text>
<text xml:space="preserve" text-anchor="middle" x="1373.04" y="-28.2" font-family="Segoe UI" font-size="10.00" fill="#0f172a">system time</text>
<text xml:space="preserve" text-anchor="middle" x="1373.04" y="-16.2" font-family="Segoe UI" font-size="10.00" fill="#0f172a">crypto/rand</text>
</g>
<!-- adapters&#45;&gt;resources -->
<g id="edge10" class="edge">
<title>adapters&#45;&gt;resources</title>
<path fill="none" stroke="#334155" stroke-width="1.25" d="M1187.44,-49.2C1212.92,-49.2 1242.66,-49.2 1270.74,-49.2"/>
<polygon fill="#334155" stroke="#334155" stroke-width="1.25" points="1270.5,-51.65 1277.5,-49.2 1270.5,-46.75 1270.5,-51.65"/>
<text xml:space="preserve" text-anchor="middle" x="1233.37" y="-51.6" font-family="Segoe UI" font-size="8.00" fill="#475569">performs I/O</text>
</g>
</g>
</svg>
