<?xml version="1.0" encoding="UTF-8" standalone="no"?>
<!DOCTYPE svg PUBLIC "-//W3C//DTD SVG 1.1//EN"
 "http://www.w3.org/Graphics/SVG/1.1/DTD/svg11.dtd">
<!-- Generated by graphviz version 14.1.3 (20260303.0454)
 -->
<!-- Title: TinyURLSystemContext Pages: 1 -->
<svg width="877pt" height="300pt"
 viewBox="0.00 0.00 877.00 300.00" xmlns="http://www.w3.org/2000/svg" xmlns:xlink="http://www.w3.org/1999/xlink">
<g id="graph0" class="graph" transform="scale(1 1) rotate(0) translate(25.2 275.22)">
<title>TinyURLSystemContext</title>
<polygon fill="#ffffff" stroke="none" points="-25.2,25.2 -25.2,-275.22 852.28,-275.22 852.28,25.2 -25.2,25.2"/>
<text xml:space="preserve" text-anchor="middle" x="413.54" y="-228.02" font-family="Segoe UI" font-size="20.00">TinyURL system context</text>
<!-- owner -->
<g id="node1" class="node">
<title>owner</title>
<path fill="#eff6ff" stroke="#2563eb" d="M139.16,-211.68C139.16,-211.68 20.25,-211.68 20.25,-211.68 14.25,-211.68 8.25,-205.68 8.25,-199.68 8.25,-199.68 8.25,-180 8.25,-180 8.25,-174 14.25,-168 20.25,-168 20.25,-168 139.16,-168 139.16,-168 145.16,-168 151.16,-174 151.16,-180 151.16,-180 151.16,-199.68 151.16,-199.68 151.16,-205.68 145.16,-211.68 139.16,-211.68"/>
<text xml:space="preserve" text-anchor="middle" x="79.7" y="-193.14" font-family="Segoe UI" font-size="11.00" fill="#0f172a">Owner / API client</text>
<text xml:space="preserve" text-anchor="middle" x="79.7" y="-179.94" font-family="Segoe UI" font-size="11.00" fill="#0f172a">Creates and manages links</text>
</g>
<!-- tinyurl -->
<g id="node4" class="node">
<title>tinyurl</title>
<path fill="#e0e7ff" stroke="#4f46e5" stroke-width="2.4" d="M539.91,-167.04C539.91,-167.04 340.71,-167.04 340.71,-167.04 334.71,-167.04 328.71,-161.04 328.71,-155.04 328.71,-155.04 328.71,-56.64 328.71,-56.64 328.71,-50.64 334.71,-44.64 340.71,-44.64 340.71,-44.64 539.91,-44.64 539.91,-44.64 545.91,-44.64 551.91,-50.64 551.91,-56.64 551.91,-56.64 551.91,-155.04 551.91,-155.04 551.91,-161.04 545.91,-167.04 539.91,-167.04"/>
<text xml:space="preserve" text-anchor="middle" x="440.31" y="-128.84" font-family="Segoe UI" font-size="11.00" fill="#0f172a">TinyURL</text>
<text xml:space="preserve" text-anchor="middle" x="440.31" y="-115.64" font-family="Segoe UI" font-size="11.00" fill="#0f172a">Go service: linkd</text>
<text xml:space="preserve" text-anchor="middle" x="440.31" y="-102.44" font-family="Segoe UI" font-size="11.00" fill="#0f172a">Create | Redirect | Manage | Health</text>
<text xml:space="preserve" text-anchor="middle" x="440.31" y="-76.24" font-family="Segoe UI" font-size="11.00" fill="#0f172a">Current: one deployable service</text>
</g>
<!-- owner&#45;&gt;tinyurl -->
<g id="edge1" class="edge">
<title>owner&#45;&gt;tinyurl</title>
<path fill="none" stroke="#334155" stroke-width="1.4" d="M151.55,-173.24C199.12,-162.1 262.99,-147.14 318.48,-134.14"/>
<polygon fill="#334155" stroke="#334155" stroke-width="1.4" points="318.9,-136.74 325.6,-132.48 317.7,-131.63 318.9,-136.74"/>
<text xml:space="preserve" text-anchor="middle" x="244.06" y="-165.37" font-family="Segoe UI" font-size="9.00" fill="#475569">HTTPS create / read / patch</text>
</g>
<!-- visitor -->
<g id="node2" class="node">
<title>visitor</title>
<path fill="#eff6ff" stroke="#2563eb" d="M122.84,-127.68C122.84,-127.68 36.57,-127.68 36.57,-127.68 30.57,-127.68 24.57,-121.68 24.57,-115.68 24.57,-115.68 24.57,-96 24.57,-96 24.57,-90 30.57,-84 36.57,-84 36.57,-84 122.84,-84 122.84,-84 128.84,-84 134.84,-90 134.84,-96 134.84,-96 134.84,-115.68 134.84,-115.68 134.84,-121.68 128.84,-127.68 122.84,-127.68"/>
<text xml:space="preserve" text-anchor="middle" x="79.7" y="-109.14" font-family="Segoe UI" font-size="11.00" fill="#0f172a">Visitor</text>
<text xml:space="preserve" text-anchor="middle" x="79.7" y="-95.94" font-family="Segoe UI" font-size="11.00" fill="#0f172a">Follows short links</text>
</g>
<!-- visitor&#45;&gt;tinyurl -->
<g id="edge2" class="edge">
<title>visitor&#45;&gt;tinyurl</title>
<path fill="none" stroke="#334155" stroke-width="1.4" d="M135.17,-105.84C183.62,-105.84 256.23,-105.84 318.34,-105.84"/>
<polygon fill="#334155" stroke="#334155" stroke-width="1.4" points="318.2,-108.47 325.7,-105.84 318.2,-103.22 318.2,-108.47"/>
<text xml:space="preserve" text-anchor="middle" x="244.06" y="-108.54" font-family="Segoe UI" font-size="9.00" fill="#475569">HTTPS GET /{code}</text>
</g>
<!-- operator -->
<g id="node3" class="node">
<title>operator</title>
<path fill="#f8fafc" stroke="#64748b" d="M147.41,-43.68C147.41,-43.68 12,-43.68 12,-43.68 6,-43.68 0,-37.68 0,-31.68 0,-31.68 0,-12 0,-12 0,-6 6,0 12,0 12,0 147.41,0 147.41,0 153.41,0 159.41,-6 159.41,-12 159.41,-12 159.41,-31.68 159.41,-31.68 159.41,-37.68 153.41,-43.68 147.41,-43.68"/>
<text xml:space="preserve" text-anchor="middle" x="79.7" y="-25.14" font-family="Segoe UI" font-size="11.00" fill="#0f172a">Operator / platform</text>
<text xml:space="preserve" text-anchor="middle" x="79.7" y="-11.94" font-family="Segoe UI" font-size="11.00" fill="#0f172a">Configures and probes service</text>
</g>
<!-- operator&#45;&gt;tinyurl -->
<g id="edge3" class="edge">
<title>operator&#45;&gt;tinyurl</title>
<path fill="none" stroke="#334155" stroke-width="1.4" d="M159.84,-40.38C206.35,-51.27 266.09,-65.26 318.39,-77.52"/>
<polygon fill="#334155" stroke="#334155" stroke-width="1.4" points="317.76,-80.06 325.66,-79.22 318.96,-74.95 317.76,-80.06"/>
<text xml:space="preserve" text-anchor="middle" x="244.06" y="-74.06" font-family="Segoe UI" font-size="9.00" fill="#475569">environment + health probes</text>
</g>
<!-- postgres -->
<g id="node5" class="node">
<title>postgres</title>
<path fill="#fff7ed" stroke="#ea580c" stroke-width="1.8" d="M827.08,-209.26C827.08,-214.09 800.53,-218.02 767.85,-218.02 735.17,-218.02 708.62,-214.09 708.62,-209.26 708.62,-209.26 708.62,-130.42 708.62,-130.42 708.62,-125.59 735.17,-121.66 767.85,-121.66 800.53,-121.66 827.08,-125.59 827.08,-130.42 827.08,-130.42 827.08,-209.26 827.08,-209.26"/>
<path fill="none" stroke="#ea580c" stroke-width="1.8" d="M827.08,-209.26C827.08,-204.43 800.53,-200.5 767.85,-200.5 735.17,-200.5 708.62,-204.43 708.62,-209.26"/>
<text xml:space="preserve" text-anchor="middle" x="767.85" y="-186.34" font-family="Segoe UI" font-size="11.00" fill="#0f172a">Postgres</text>
<text xml:space="preserve" text-anchor="middle" x="767.85" y="-173.14" font-family="Segoe UI" font-size="11.00" fill="#0f172a">Authoritative links</text>
<text xml:space="preserve" text-anchor="middle" x="767.85" y="-159.94" font-family="Segoe UI" font-size="11.00" fill="#0f172a">Idempotency records</text>
<text xml:space="preserve" text-anchor="middle" x="767.85" y="-146.74" font-family="Segoe UI" font-size="11.00" fill="#0f172a">Redirect events</text>
</g>
<!-- tinyurl&#45;&gt;postgres -->
<g id="edge4" class="edge">
<title>tinyurl&#45;&gt;postgres</title>
<path fill="none" stroke="#334155" stroke-width="1.4" d="M552.88,-127.78C601.31,-137.3 656.47,-148.14 698.65,-156.43"/>
<polygon fill="#334155" stroke="#334155" stroke-width="1.4" points="698.04,-158.99 705.91,-157.86 699.06,-153.84 698.04,-158.99"/>
<text xml:space="preserve" text-anchor="middle" x="630.26" y="-153.63" font-family="Segoe UI" font-size="9.00" fill="#475569">required reads and writes</text>
</g>
<!-- redis -->
<g id="node6" class="node">
<title>redis</title>
<path fill="#faf5ff" stroke="#7c3aed" stroke-dasharray="5,2" d="M818.23,-74.84C818.23,-78.76 795.65,-81.94 767.85,-81.94 740.05,-81.94 717.47,-78.76 717.47,-74.84 717.47,-74.84 717.47,-10.85 717.47,-10.85 717.47,-6.92 740.05,-3.74 767.85,-3.74 795.65,-3.74 818.23,-6.92 818.23,-10.85 818.23,-10.85 818.23,-74.84 818.23,-74.84"/>
<path fill="none" stroke="#7c3aed" stroke-dasharray="5,2" d="M818.23,-74.84C818.23,-70.91 795.65,-67.73 767.85,-67.73 740.05,-67.73 717.47,-70.91 717.47,-74.84"/>
<text xml:space="preserve" text-anchor="middle" x="767.85" y="-52.74" font-family="Segoe UI" font-size="11.00" fill="#6d28d9">Redis</text>
<text xml:space="preserve" text-anchor="middle" x="767.85" y="-39.54" font-family="Segoe UI" font-size="11.00" fill="#6d28d9">Redirect cache</text>
<text xml:space="preserve" text-anchor="middle" x="767.85" y="-26.34" font-family="Segoe UI" font-size="11.00" fill="#6d28d9">NEXT milestone</text>
</g>
<!-- tinyurl&#45;&gt;redis -->
<g id="edge5" class="edge">
<title>tinyurl&#45;&gt;redis</title>
<path fill="none" stroke="#7c3aed" stroke-width="1.4" stroke-dasharray="5,2" d="M552.88,-84.25C605.01,-74.16 664.94,-62.56 708.09,-54.21"/>
<polygon fill="#7c3aed" stroke="#7c3aed" stroke-width="1.4" points="708.36,-56.83 715.23,-52.83 707.36,-51.68 708.36,-56.83"/>
<text xml:space="preserve" text-anchor="middle" x="630.26" y="-78.93" font-family="Segoe UI" font-size="9.00" fill="#7c3aed">optional cache&#45;aside</text>
</g>
</g>
</svg>
